<?xml version="1.0" encoding="UTF-8" standalone="no"?>
<!DOCTYPE svg PUBLIC "-//W3C//DTD SVG 1.1//EN" "http://www.w3.org/Graphics/SVG/1.1/DTD/svg11.dtd">
<svg width="100%" height="100%" viewBox="0 0 1050 600" version="1.1" xmlns="http://www.w3.org/2000/svg" xmlns:xlink="http://www.w3.org/1999/xlink" xml:space="preserve" xmlns:serif="http://www.serif.com/" style="fill-rule:evenodd;clip-rule:evenodd;stroke-linejoin:round;stroke-miterlimit:2;">
    <g transform="matrix(0.829753,0,0,0.829753,157.346,-48.5584)">
        <g transform="matrix(1.1583,-0.22701,0.216427,1.1043,85.2479,27.7653)">
            <path d="M299.664,171.591L150.76,300.887L300.493,484.13L299.664,171.591Z" style="fill:rgb(10,0,255);fill-opacity:0.72;"/>
        </g>
        <g transform="matrix(-1.07992,-0.211648,-0.213336,1.08853,549.946,30.8534)">
            <path d="M299.38,169.512L150.76,300.887L296.506,487.226L299.38,169.512Z" style="fill:rgb(255,0,0);fill-opacity:0.8;"/>
        </g>
        <g transform="matrix(0.734854,0.324119,-0.43414,0.984297,278.645,-130.706)">
            <path d="M281.798,214.406L151.951,282.475L332.826,461.857L281.798,214.406Z" style="fill:rgb(0,190,255);fill-opacity:0.5;"/>
        </g>
    </g>
    <g transform="matrix(1,0,0,1,-446.959,276.689)">
        <text x="514.358px" y="155.448px" style="font-family:'TwCenMT-Bold', 'Tw Cen MT', sans-serif;font-weight:700;font-size:150px;stroke:rgb(255,247,247);stroke-width:4.33px;">Ewur<tspan x="833.035px 912.21px " y="155.448px 155.448px ">ay</tspan>s&apos;</text>
        <text x="1091.51px" y="155.448px" style="font-family:'TwCenMT-Bold', 'Tw Cen MT', sans-serif;font-weight:700;font-size:150px;fill:rgb(243,238,238);">Mar<tspan x="1343.9px " y="155.448px ">t</tspan></text>
        <path d="M1126.39,107.641L1120.72,155.953C1120.46,158.136 1118.61,159.781 1116.41,159.781L1096.34,159.781C1095.1,159.781 1093.92,159.249 1093.1,158.319C1092.27,157.389 1091.89,156.151 1092.04,154.919L1103.85,58.752C1104.12,56.58 1105.96,54.947 1108.15,54.947L1132.78,54.947C1134.68,54.947 1136.35,56.179 1136.92,57.988L1150.8,102.4L1164.69,57.987C1165.25,56.179 1166.93,54.947 1168.82,54.947L1192.58,54.947C1194.76,54.947 1196.6,56.566 1196.87,58.727L1209.26,154.894C1209.42,156.13 1209.04,157.374 1208.21,158.309C1207.39,159.245 1206.2,159.781 1204.96,159.781L1185.21,159.781C1183.03,159.781 1181.19,158.155 1180.91,155.987L1174.91,108.1L1159.69,156.741C1159.13,158.55 1157.45,159.781 1155.56,159.781L1146.15,159.781C1144.26,159.781 1142.59,158.56 1142.02,156.762L1126.39,107.641ZM1108.15,59.281L1132.78,59.281L1150.8,116.922L1168.82,59.281L1192.58,59.281L1204.96,155.448L1185.21,155.448L1176.72,87.772L1155.56,155.448L1146.15,155.448L1124.43,87.186L1116.41,155.448L1096.34,155.448L1108.15,59.281Z" style="fill:rgb(3,0,0);"/>
        <path d="M1256.66,155.643C1255.82,156.329 1254.98,156.936 1254.15,157.464C1250.54,159.74 1246.1,160.953 1240.77,160.953C1232.1,160.953 1224.68,157.303 1218.59,149.836C1212.8,142.733 1209.85,134.117 1209.85,123.953C1209.85,113.867 1212.98,105.23 1219.18,98.021C1225.61,90.539 1233.27,86.881 1242.09,86.881C1246.49,86.881 1250.44,87.887 1253.95,89.849C1254.87,90.364 1255.81,90.964 1256.76,91.652C1257.2,89.717 1258.92,88.273 1260.99,88.273L1279.74,88.273C1282.13,88.273 1284.07,90.213 1284.07,92.606L1284.07,155.448C1284.07,157.841 1282.13,159.781 1279.74,159.781L1260.99,159.781C1258.66,159.781 1256.76,157.945 1256.66,155.643ZM1260.99,155.448L1260.99,144.681L1260.7,144.681C1257.77,148.88 1254.81,151.92 1251.83,153.8C1248.86,155.68 1245.17,156.62 1240.77,156.62C1233.4,156.62 1227.13,153.446 1221.95,147.098C1216.78,140.75 1214.19,133.036 1214.19,123.953C1214.19,114.969 1216.95,107.266 1222.46,100.846C1227.98,94.425 1234.52,91.214 1242.09,91.214C1245.71,91.214 1248.95,92.02 1251.83,93.631C1254.71,95.243 1257.77,97.806 1260.99,101.322L1260.99,92.606L1279.74,92.606L1279.74,155.448L1260.99,155.448ZM1247.22,109.964C1243.51,109.964 1240.41,111.441 1237.92,114.395C1235.43,117.349 1234.18,121.073 1234.18,125.565C1234.18,129.764 1235.37,133.145 1237.74,135.709C1240.1,138.272 1243.22,139.554 1247.07,139.554C1250.78,139.554 1253.96,138.077 1256.59,135.123C1259.23,132.169 1260.55,128.592 1260.55,124.393C1260.55,120.487 1259.23,117.105 1256.59,114.249C1253.96,111.392 1250.83,109.964 1247.22,109.964ZM1247.22,114.298C1249.61,114.298 1251.66,115.295 1253.41,117.188C1255.28,119.217 1256.22,121.619 1256.22,124.393C1256.22,127.458 1255.29,130.081 1253.36,132.237C1251.61,134.195 1249.53,135.221 1247.07,135.221C1244.54,135.221 1242.47,134.45 1240.92,132.768C1239.24,130.957 1238.52,128.532 1238.52,125.565C1238.52,122.206 1239.37,119.397 1241.23,117.188C1242.84,115.282 1244.82,114.298 1247.22,114.298Z" style="fill:rgb(3,0,0);"/>
        <path d="M1320.28,90.947L1320.4,90.848C1323.78,88.343 1326.96,87.247 1329.84,87.247C1331.4,87.247 1332.82,87.375 1334.09,87.617C1336.13,88.006 1337.61,89.793 1337.61,91.873L1337.61,112.381C1337.61,113.67 1337.04,114.893 1336.05,115.716C1335.05,116.539 1333.75,116.878 1332.48,116.64C1331.19,116.398 1329.92,116.275 1328.66,116.275C1326.29,116.275 1324.41,117.013 1323.1,118.68C1321.49,120.743 1320.84,123.678 1320.84,127.396L1320.84,155.448C1320.84,157.841 1318.9,159.781 1316.51,159.781L1297.46,159.781C1295.07,159.781 1293.13,157.841 1293.13,155.448L1293.13,92.459C1293.13,90.066 1295.07,88.126 1297.46,88.126L1316.21,88.126C1318.08,88.126 1319.66,89.299 1320.28,90.947ZM1316.21,92.459L1316.21,101.761L1316.51,101.761C1318.36,98.636 1320.52,96.158 1322.99,94.327C1325.45,92.496 1327.74,91.58 1329.84,91.58C1331.11,91.58 1332.25,91.678 1333.28,91.873L1333.28,112.381C1331.72,112.088 1330.18,111.942 1328.66,111.942C1324.81,111.942 1321.82,113.297 1319.69,116.007C1317.57,118.717 1316.51,122.513 1316.51,127.396L1316.51,155.448L1297.46,155.448L1297.46,92.459L1316.21,92.459Z" style="fill:rgb(3,0,0);"/>
        <path d="M1348.43,88.126L1348.43,70.853C1348.43,68.46 1350.37,66.52 1352.76,66.52L1371.51,66.52C1373.9,66.52 1375.85,68.46 1375.85,70.853L1375.85,88.126L1380.52,88.126C1382.91,88.126 1384.85,90.066 1384.85,92.459L1384.85,109.671C1384.85,112.065 1382.91,114.005 1380.52,114.005L1375.85,114.005L1375.85,155.448C1375.85,157.841 1373.9,159.781 1371.51,159.781L1352.76,159.781C1350.37,159.781 1348.43,157.841 1348.43,155.448L1348.43,114.005L1345.58,114.005C1343.19,114.005 1341.25,112.065 1341.25,109.671L1341.25,92.459C1341.25,90.066 1343.19,88.126 1345.58,88.126L1348.43,88.126ZM1352.76,70.853L1371.51,70.853L1371.51,92.459L1380.52,92.459L1380.52,109.671L1371.51,109.671L1371.51,155.448L1352.76,155.448L1352.76,109.671L1345.58,109.671L1345.58,92.459L1352.76,92.459L1352.76,70.853Z" style="fill:rgb(3,0,0);"/>
    </g>
</svg>
